<svg aria-roledescription="er" role="graphics-document document" viewBox="0 0 155.50775146484375 633.046875" height="633.046875" xmlns="http://www.w3.org/2000/svg" width="155.50775146484375" id="tmpMermaidElement5254"><style>svg {background: white;}#tmpMermaidElement5254{font-family:"trebuchet ms",verdana,arial,sans-serif;font-size:16px;fill:#333;}#tmpMermaidElement5254 .error-icon{fill:#552222;}#tmpMermaidElement5254 .error-text{fill:#552222;stroke:#552222;}#tmpMermaidElement5254 .edge-thickness-normal{stroke-width:2px;}#tmpMermaidElement5254 .edge-thickness-thick{stroke-width:3.5px;}#tmpMermaidElement5254 .edge-pattern-solid{stroke-dasharray:0;}#tmpMermaidElement5254 .edge-pattern-dashed{stroke-dasharray:3;}#tmpMermaidElement5254 .edge-pattern-dotted{stroke-dasharray:2;}#tmpMermaidElement5254 .marker{fill:#333333;stroke:#333333;}#tmpMermaidElement5254 .marker.cross{stroke:#333333;}#tmpMermaidElement5254 svg{font-family:"trebuchet ms",verdana,arial,sans-serif;font-size:16px;}#tmpMermaidElement5254 .entityBox{fill:#ECECFF;stroke:#9370DB;}#tmpMermaidElement5254 .attributeBoxOdd{fill:#ffffff;stroke:#9370DB;}#tmpMermaidElement5254 .attributeBoxEven{fill:#f2f2f2;stroke:#9370DB;}#tmpMermaidElement5254 .relationshipLabelBox{fill:hsl(80, 100%, 96.2745098039%);opacity:0.7;background-color:hsl(80, 100%, 96.2745098039%);}#tmpMermaidElement5254 .relationshipLabelBox rect{opacity:0.5;}#tmpMermaidElement5254 .relationshipLine{stroke:#333333;}#tmpMermaidElement5254 .entityTitleText{text-anchor:middle;font-size:18px;fill:#333;}#tmpMermaidElement5254 #MD_PARENT_START{fill:#f5f5f5!important;stroke:#333333!important;stroke-width:1;}#tmpMermaidElement5254 #MD_PARENT_END{fill:#f5f5f5!important;stroke:#333333!important;stroke-width:1;}#tmpMermaidElement5254 :root{--mermaid-font-family:"trebuchet ms",verdana,arial,sans-serif;}</style><g/><defs><marker orient="auto" markerHeight="240" markerWidth="190" refY="7" refX="0" id="MD_PARENT_START"><path d="M 18,7 L9,13 L1,7 L9,1 Z"/></marker></defs><defs><marker orient="auto" markerHeight="28" markerWidth="20" refY="7" refX="19" id="MD_PARENT_END"><path d="M 18,7 L9,13 L1,7 L9,1 Z"/></marker></defs><defs><marker orient="auto" markerHeight="18" markerWidth="18" refY="9" refX="0" id="ONLY_ONE_START"><path d="M9,0 L9,18 M15,0 L15,18" fill="none" stroke="gray"/></marker></defs><defs><marker orient="auto" markerHeight="18" markerWidth="18" refY="9" refX="18" id="ONLY_ONE_END"><path d="M3,0 L3,18 M9,0 L9,18" fill="none" stroke="gray"/></marker></defs><defs><marker orient="auto" markerHeight="18" markerWidth="30" refY="9" refX="0" id="ZERO_OR_ONE_START"><circle r="6" cy="9" cx="21" fill="white" stroke="gray"/><path d="M9,0 L9,18" fill="none" stroke="gray"/></marker></defs><defs><marker orient="auto" markerHeight="18" markerWidth="30" refY="9" refX="30" id="ZERO_OR_ONE_END"><circle r="6" cy="9" cx="9" fill="white" stroke="gray"/><path d="M21,0 L21,18" fill="none" stroke="gray"/></marker></defs><defs><marker orient="auto" markerHeight="36" markerWidth="45" refY="18" refX="18" id="ONE_OR_MORE_START"><path d="M0,18 Q 18,0 36,18 Q 18,36 0,18 M42,9 L42,27" fill="none" stroke="gray"/></marker></defs><defs><marker orient="auto" markerHeight="36" markerWidth="45" refY="18" refX="27" id="ONE_OR_MORE_END"><path d="M3,9 L3,27 M9,18 Q27,0 45,18 Q27,36 9,18" fill="none" stroke="gray"/></marker></defs><defs><marker orient="auto" markerHeight="36" markerWidth="57" refY="18" refX="18" id="ZERO_OR_MORE_START"><circle r="6" cy="18" cx="48" fill="white" stroke="gray"/><path d="M0,18 Q18,0 36,18 Q18,36 0,18" fill="none" stroke="gray"/></marker></defs><defs><marker orient="auto" markerHeight="36" markerWidth="57" refY="18" refX="39" id="ZERO_OR_MORE_END"><circle r="6" cy="18" cx="9" fill="white" stroke="gray"/><path d="M21,18 Q39,0 57,18 Q39,36 21,18" fill="none" stroke="gray"/></marker></defs><path style="stroke: gray; fill: none;" marker-start="url(#ONLY_ONE_START)" marker-end="url(#ZERO_OR_MORE_END)" d="M77.754,438.031L77.754,446.365C77.754,454.698,77.754,471.365,77.754,488.031C77.754,504.698,77.754,521.365,77.754,529.698L77.754,538.031" class="er relationshipLine"/><path style="stroke: gray; fill: none;" marker-start="url(#ONLY_ONE_START)" marker-end="url(#ZERO_OR_MORE_END)" d="M77.754,119.016L77.754,127.349C77.754,135.682,77.754,152.349,77.754,169.016C77.754,185.682,77.754,202.349,77.754,210.682L77.754,219.016" class="er relationshipLine"/><g transform="translate(23.371673583984375,219.015625 )" id="entity-PLANET-430f7098-e481-5c76-9259-8f8db5ad1c0a"><rect height="219.015625" width="108.764404296875" y="0" x="0" class="er entityBox"/><text style="dominant-baseline: middle; text-anchor: middle; font-size: 12px;" transform="translate(54.3822021484375,13.5078125)" y="0" x="0" id="text-entity-PLANET-430f7098-e481-5c76-9259-8f8db5ad1c0a" class="er entityLabel">PLANET</text><rect height="24" width="43.413726806640625" y="27.015625" x="0" class="er attributeBoxOdd"/><text style="dominant-baseline: middle; font-size: 10.2px;" transform="translate(5,39.015625)" y="0" x="0" id="text-entity-PLANET-430f7098-e481-5c76-9259-8f8db5ad1c0a-attr-1-type" class="er entityLabel">double</text><rect height="24" width="65.35067749023438" y="27.015625" x="43.413726806640625" class="er attributeBoxOdd"/><text style="dominant-baseline: middle; font-size: 10.2px;" transform="translate(48.413726806640625,39.015625)" y="0" x="0" id="text-entity-PLANET-430f7098-e481-5c76-9259-8f8db5ad1c0a-attr-1-name" class="er entityLabel">mass</text><rect height="24" width="43.413726806640625" y="51.015625" x="0" class="er attributeBoxEven"/><text style="dominant-baseline: middle; font-size: 10.2px;" transform="translate(5,63.015625)" y="0" x="0" id="text-entity-PLANET-430f7098-e481-5c76-9259-8f8db5ad1c0a-attr-2-type" class="er entityLabel">double</text><rect height="24" width="65.35067749023438" y="51.015625" x="43.413726806640625" class="er attributeBoxEven"/><text style="dominant-baseline: middle; font-size: 10.2px;" transform="translate(48.413726806640625,63.015625)" y="0" x="0" id="text-entity-PLANET-430f7098-e481-5c76-9259-8f8db5ad1c0a-attr-2-name" class="er entityLabel">axis</text><rect height="24" width="43.413726806640625" y="75.015625" x="0" class="er attributeBoxOdd"/><text style="dominant-baseline: middle; font-size: 10.2px;" transform="translate(5,87.015625)" y="0" x="0" id="text-entity-PLANET-430f7098-e481-5c76-9259-8f8db5ad1c0a-attr-3-type" class="er entityLabel">double</text><rect height="24" width="65.35067749023438" y="75.015625" x="43.413726806640625" class="er attributeBoxOdd"/><text style="dominant-baseline: middle; font-size: 10.2px;" transform="translate(48.413726806640625,87.015625)" y="0" x="0" id="text-entity-PLANET-430f7098-e481-5c76-9259-8f8db5ad1c0a-attr-3-name" class="er entityLabel">excentricity</text><rect height="24" width="43.413726806640625" y="99.015625" x="0" class="er attributeBoxEven"/><text style="dominant-baseline: middle; font-size: 10.2px;" transform="translate(5,111.015625)" y="0" x="0" id="text-entity-PLANET-430f7098-e481-5c76-9259-8f8db5ad1c0a-attr-4-type" class="er entityLabel">double</text><rect height="24" width="65.35067749023438" y="99.015625" x="43.413726806640625" class="er attributeBoxEven"/><text style="dominant-baseline: middle; font-size: 10.2px;" transform="translate(48.413726806640625,111.015625)" y="0" x="0" id="text-entity-PLANET-430f7098-e481-5c76-9259-8f8db5ad1c0a-attr-4-name" class="er entityLabel">radius</text><rect height="24" width="43.413726806640625" y="123.015625" x="0" class="er attributeBoxOdd"/><text style="dominant-baseline: middle; font-size: 10.2px;" transform="translate(5,135.015625)" y="0" x="0" id="text-entity-PLANET-430f7098-e481-5c76-9259-8f8db5ad1c0a-attr-5-type" class="er entityLabel">int</text><rect height="24" width="65.35067749023438" y="123.015625" x="43.413726806640625" class="er attributeBoxOdd"/><text style="dominant-baseline: middle; font-size: 10.2px;" transform="translate(48.413726806640625,135.015625)" y="0" x="0" id="text-entity-PLANET-430f7098-e481-5c76-9259-8f8db5ad1c0a-attr-5-name" class="er entityLabel">color</text><rect height="24" width="43.413726806640625" y="147.015625" x="0" class="er attributeBoxEven"/><text style="dominant-baseline: middle; font-size: 10.2px;" transform="translate(5,159.015625)" y="0" x="0" id="text-entity-PLANET-430f7098-e481-5c76-9259-8f8db5ad1c0a-attr-6-type" class="er entityLabel">VEC2</text><rect height="24" width="65.35067749023438" y="147.015625" x="43.413726806640625" class="er attributeBoxEven"/><text style="dominant-baseline: middle; font-size: 10.2px;" transform="translate(48.413726806640625,159.015625)" y="0" x="0" id="text-entity-PLANET-430f7098-e481-5c76-9259-8f8db5ad1c0a-attr-6-name" class="er entityLabel">pos</text><rect height="24" width="43.413726806640625" y="171.015625" x="0" class="er attributeBoxOdd"/><text style="dominant-baseline: middle; font-size: 10.2px;" transform="translate(5,183.015625)" y="0" x="0" id="text-entity-PLANET-430f7098-e481-5c76-9259-8f8db5ad1c0a-attr-7-type" class="er entityLabel">VEC2</text><rect height="24" width="65.35067749023438" y="171.015625" x="43.413726806640625" class="er attributeBoxOdd"/><text style="dominant-baseline: middle; font-size: 10.2px;" transform="translate(48.413726806640625,183.015625)" y="0" x="0" id="text-entity-PLANET-430f7098-e481-5c76-9259-8f8db5ad1c0a-attr-7-name" class="er entityLabel">prec_pos</text><rect height="24" width="43.413726806640625" y="195.015625" x="0" class="er attributeBoxEven"/><text style="dominant-baseline: middle; font-size: 10.2px;" transform="translate(5,207.015625)" y="0" x="0" id="text-entity-PLANET-430f7098-e481-5c76-9259-8f8db5ad1c0a-attr-8-type" class="er entityLabel">VEC2</text><rect height="24" width="65.35067749023438" y="195.015625" x="43.413726806640625" class="er attributeBoxEven"/><text style="dominant-baseline: middle; font-size: 10.2px;" transform="translate(48.413726806640625,207.015625)" y="0" x="0" id="text-entity-PLANET-430f7098-e481-5c76-9259-8f8db5ad1c0a-attr-8-name" class="er entityLabel">vit_init</text></g><g transform="translate(27.753875732421875,538.03125 )" id="entity-VEC2-a7ae2d9c-a15e-5f7d-97ca-d04ca6bbf1e6"><rect height="75.015625" width="100" y="0" x="0" class="er entityBox"/><text style="dominant-baseline: middle; text-anchor: middle; font-size: 12px;" transform="translate(50,13.5078125)" y="0" x="0" id="text-entity-VEC2-a7ae2d9c-a15e-5f7d-97ca-d04ca6bbf1e6" class="er entityLabel">VEC2</text><rect height="24" width="63.70686340332031" y="27.015625" x="0" class="er attributeBoxOdd"/><text style="dominant-baseline: middle; font-size: 10.2px;" transform="translate(5,39.015625)" y="0" x="0" id="text-entity-VEC2-a7ae2d9c-a15e-5f7d-97ca-d04ca6bbf1e6-attr-1-type" class="er entityLabel">double</text><rect height="24" width="36.29313659667969" y="27.015625" x="63.70686340332031" class="er attributeBoxOdd"/><text style="dominant-baseline: middle; font-size: 10.2px;" transform="translate(68.70686340332031,39.015625)" y="0" x="0" id="text-entity-VEC2-a7ae2d9c-a15e-5f7d-97ca-d04ca6bbf1e6-attr-1-name" class="er entityLabel">x</text><rect height="24" width="63.70686340332031" y="51.015625" x="0" class="er attributeBoxEven"/><text style="dominant-baseline: middle; font-size: 10.2px;" transform="translate(5,63.015625)" y="0" x="0" id="text-entity-VEC2-a7ae2d9c-a15e-5f7d-97ca-d04ca6bbf1e6-attr-2-type" class="er entityLabel">double</text><rect height="24" width="36.29313659667969" y="51.015625" x="63.70686340332031" class="er attributeBoxEven"/><text style="dominant-baseline: middle; font-size: 10.2px;" transform="translate(68.70686340332031,63.015625)" y="0" x="0" id="text-entity-VEC2-a7ae2d9c-a15e-5f7d-97ca-d04ca6bbf1e6-attr-2-name" class="er entityLabel">y</text></g><g transform="translate(20,20 )" id="entity-SYSTEM-ccd2f3ed-0994-570f-bcdc-56a067f85a63"><rect height="99.015625" width="115.50775146484375" y="0" x="0" class="er entityBox"/><text style="dominant-baseline: middle; text-anchor: middle; font-size: 12px;" transform="translate(57.753875732421875,13.5078125)" y="0" x="0" id="text-entity-SYSTEM-ccd2f3ed-0994-570f-bcdc-56a067f85a63" class="er entityLabel">SYSTEM</text><rect height="24" width="53.5" y="27.015625" x="0" class="er attributeBoxOdd"/><text style="dominant-baseline: middle; font-size: 10.2px;" transform="translate(5,39.015625)" y="0" x="0" id="text-entity-SYSTEM-ccd2f3ed-0994-570f-bcdc-56a067f85a63-attr-1-type" class="er entityLabel">PLANET</text><rect height="24" width="62.00775146484375" y="27.015625" x="53.5" class="er attributeBoxOdd"/><text style="dominant-baseline: middle; font-size: 10.2px;" transform="translate(58.5,39.015625)" y="0" x="0" id="text-entity-SYSTEM-ccd2f3ed-0994-570f-bcdc-56a067f85a63-attr-1-name" class="er entityLabel">star</text><rect height="24" width="53.5" y="51.015625" x="0" class="er attributeBoxEven"/><text style="dominant-baseline: middle; font-size: 10.2px;" transform="translate(5,63.015625)" y="0" x="0" id="text-entity-SYSTEM-ccd2f3ed-0994-570f-bcdc-56a067f85a63-attr-2-type" class="er entityLabel">PLANET[]</text><rect height="24" width="62.00775146484375" y="51.015625" x="53.5" class="er attributeBoxEven"/><text style="dominant-baseline: middle; font-size: 10.2px;" transform="translate(58.5,63.015625)" y="0" x="0" id="text-entity-SYSTEM-ccd2f3ed-0994-570f-bcdc-56a067f85a63-attr-2-name" class="er entityLabel">planets</text><rect height="24" width="53.5" y="75.015625" x="0" class="er attributeBoxOdd"/><text style="dominant-baseline: middle; font-size: 10.2px;" transform="translate(5,87.015625)" y="0" x="0" id="text-entity-SYSTEM-ccd2f3ed-0994-570f-bcdc-56a067f85a63-attr-3-type" class="er entityLabel">int</text><rect height="24" width="62.00775146484375" y="75.015625" x="53.5" class="er attributeBoxOdd"/><text style="dominant-baseline: middle; font-size: 10.2px;" transform="translate(58.5,87.015625)" y="0" x="0" id="text-entity-SYSTEM-ccd2f3ed-0994-570f-bcdc-56a067f85a63-attr-3-name" class="er entityLabel">nb_planets</text></g><rect height="17.015625" width="20.02734375" y="479.523193359375" x="67.74032592773438" class="er relationshipLabelBox"/><text style="text-anchor: middle; dominant-baseline: middle; font-size: 12px;" y="488.031005859375" x="77.75399780273438" id="rel1" class="er relationshipLabel">has</text><rect height="17.015625" width="47.66015625" y="160.50819396972656" x="53.923919677734375" class="er relationshipLabelBox"/><text style="text-anchor: middle; dominant-baseline: middle; font-size: 12px;" y="169.01600646972656" x="77.75399780273438" id="rel2" class="er relationshipLabel">contains</text></svg>